SplineFontDB: 3.2
FontName: metsymb
FullName: metsymb
FamilyName: metsymb
Weight: Regular
Copyright: Copyright (c) 2021, MeteoSwiss. Created by F.P.A. Vogt; frederic.vogt@meteoswiss.ch
UComments: "2021-8-23: Created with FontForge (http://fontforge.org)"
FontLog: "CONTRIBUTORS:+AAoA-F.P.A. Vogt; frederic.vogt@meteoswiss.ch+AAoACgAA-CHANGELOG:+AAoA-2021-08-26 - v1.0: First release with okta and cloud symbols."
Version: 001.000
ItalicAngle: 0
UnderlinePosition: -100
UnderlineWidth: 50
Ascent: 800
Descent: 200
InvalidEm: 0
LayerCount: 2
Layer: 0 0 "Back" 1
Layer: 1 0 "Fore" 0
XUID: [1021 554 1435977245 4491033]
FSType: 0
OS2Version: 0
OS2_WeightWidthSlopeOnly: 0
OS2_UseTypoMetrics: 1
CreationTime: 1629714157
ModificationTime: 1629981613
PfmFamily: 33
TTFWeight: 400
TTFWidth: 5
LineGap: 90
VLineGap: 0
OS2TypoAscent: 0
OS2TypoAOffset: 1
OS2TypoDescent: 0
OS2TypoDOffset: 1
OS2TypoLinegap: 90
OS2WinAscent: 0
OS2WinAOffset: 1
OS2WinDescent: 0
OS2WinDOffset: 1
HheadAscent: 0
HheadAOffset: 1
HheadDescent: 0
HheadDOffset: 1
OS2Vendor: 'PfEd'
MarkAttachClasses: 1
DEI: 91125
LangName: 1033
Encoding: TeX-Base-Encoding
UnicodeInterp: none
NameList: ΤεΧ Names
DisplaySize: -48
AntiAlias: 1
FitToEm: 0
WinInfo: 0 27 13
BeginPrivate: 0
EndPrivate
TeXData: 1 0 0 346030 173015 115343 0 1048576 115343 783286 444596 497025 792723 393216 433062 380633 303038 157286 324010 404750 52429 2506097 1059062 262144
BeginChars: 256 20

StartChar: zero
Encoding: 48 48 0
Width: 1000
GlyphClass: 2
HStem: -100 50<374.334 625.666> 750 50<374.334 625.666>
VStem: 50 50<224.334 474.505> 900 50<224.334 474.505>
LayerCount: 2
Fore
SplineSet
500 750 m 28
 279 750 100 565 100 350 c 28
 100 129 279 -50 500 -50 c 28
 721 -50 900 129 900 350 c 28
 900 565 721 750 500 750 c 28
500 800 m 28
 748 800 950 598 950 350 c 28
 950 102 748 -100 500 -100 c 28
 252 -100 50 102 50 350 c 28
 50 598 252 800 500 800 c 28
EndSplineSet
Validated: 1
EndChar

StartChar: one
Encoding: 49 49 1
Width: 1000
Flags: W
HStem: -100 50.7676<376.994 475 525 623.006> 749.207 50.7926<376.994 475 525 623.006>
VStem: 50 50<226.636 472.226> 475 50<-49.2324 749.207> 900 50<226.636 472.226>
CounterMasks: 1 38
LayerCount: 2
Fore
SplineSet
500 800 m 24
 748 800 950 598 950 350 c 24
 950 102 748 -100 500 -100 c 24
 252 -100 50 102 50 350 c 24
 50 598 252 800 500 800 c 24
525 749.207373705 m 1
 525 -49.2323690411 l 1
 734.343129723 -36.3378630332 900 137.396463591 900 350 c 0
 900 556.831494697 734.343129723 735.899268118 525 749.207373705 c 1
475 -49.2323690411 m 1
 475 749.207373705 l 1
 265.656870277 735.899268118 100 556.831494697 100 350 c 0
 100 137.396463591 265.656870277 -36.3378630332 475 -49.2323690411 c 1
EndSplineSet
Validated: 1
EndChar

StartChar: two
Encoding: 50 50 2
Width: 1000
Flags: W
HStem: -100 50<374.334 623.364> 325 475<476.89 633.62>
VStem: 50 50<224.334 472.226> 475 475<326.89 483.62>
LayerCount: 2
Fore
SplineSet
500 800 m 24
 748 800 950 598 950 350 c 24
 950 102 748 -100 500 -100 c 24
 252 -100 50 102 50 350 c 24
 50 598 252 800 500 800 c 24
899.232369041 325 m 1
 475 325 l 1
 475 749.207373705 l 1
 265.656870277 735.899268118 100 556.831494697 100 350 c 0
 100 129 279 -50 500 -50 c 0
 712.603536409 -50 886.337863033 115.656870277 899.232369041 325 c 1
EndSplineSet
Validated: 1
EndChar

StartChar: three
Encoding: 51 51 3
Width: 1000
Flags: W
HStem: -100 50.7676<376.994 475 525 623.006> 325 475<525 633.62>
VStem: 50 50<226.636 472.226> 475 475<326.89 483.62> 475 50<-49.2324 325>
LayerCount: 2
Fore
SplineSet
500 800 m 24xf0
 748 800 950 598 950 350 c 24
 950 102 748 -100 500 -100 c 24
 252 -100 50 102 50 350 c 24
 50 598 252 800 500 800 c 24xf0
899.232369041 325 m 1
 525 325 l 1
 525 -49.2323690411 l 1xe8
 726.075431093 -36.8471125595 886.84711256 123.924568907 899.232369041 325 c 1
475 -49.2323690411 m 1
 475 749.207373705 l 1
 265.656870277 735.899268118 100 556.831494697 100 350 c 0
 100 137.396463591 265.656870277 -36.3378630332 475 -49.2323690411 c 1
EndSplineSet
Validated: 1
EndChar

StartChar: four
Encoding: 52 52 4
Width: 1000
Flags: W
HStem: -100 21G<376 624> 780 20G<376 624>
VStem: 50 50<226.636 472.226> 475 475<216.38 483.62>
LayerCount: 2
Fore
SplineSet
500 800 m 24
 748 800 950 598 950 350 c 24
 950 102 748 -100 500 -100 c 24
 252 -100 50 102 50 350 c 24
 50 598 252 800 500 800 c 24
900 350 m 1024
525 749.207373705 m 1025
475 749.207373705 m 1025
475 -49.2323690411 m 1025
525 -49.2323690411 m 1025
475 -49.2323690411 m 1
 475 749.207373705 l 1
 265.656870277 735.899268118 100 556.831494697 100 350 c 0
 100 137.396463591 265.656870277 -36.3378630332 475 -49.2323690411 c 1
EndSplineSet
Validated: 1
EndChar

StartChar: five
Encoding: 53 53 5
Width: 1000
Flags: W
HStem: -100 21G<376 624> 325 50<100.808 475> 780 20G<376 624>
VStem: 50 50.7676<226.994 325 375 472.76>
LayerCount: 2
Fore
SplineSet
525 -49.2323690411 m 1025
475 -49.2323690411 m 1025
475 749.207373705 m 1025
525 749.207373705 m 1025
900 350 m 1024
500 800 m 24
 748 800 950 598 950 350 c 24
 950 102 748 -100 500 -100 c 24
 252 -100 50 102 50 350 c 24
 50 598 252 800 500 800 c 24
475 325 m 1
 100.767630959 325 l 1
 113.15288744 123.924568907 273.924568907 -36.8471125595 475 -49.2323690411 c 1
 475 325 l 1
475 375 m 1
 475 749.207373705 l 1
 274.140648177 736.438588478 113.498470257 571.072957654 100.808073154 375 c 1
 475 375 l 1
EndSplineSet
Validated: 1
EndChar

StartChar: six
Encoding: 54 54 6
Width: 1000
Flags: W
HStem: -100 475<366.38 475> 780 20G<376 624>
VStem: 475 475<375 483.62>
LayerCount: 2
Fore
SplineSet
525 -49.2323690411 m 1025
475 -49.2323690411 m 1025
475 749.207373705 m 1025
525 749.207373705 m 1025
900 350 m 1024
500 800 m 24
 748 800 950 598 950 350 c 24
 950 102 748 -100 500 -100 c 24
 252 -100 50 102 50 350 c 24
 50 598 252 800 500 800 c 24
475 -49.2323690411 m 1025
100.808073154 375 m 1025
100.767630959 325 m 1025
475 375 m 1
 475 749.207373705 l 1
 274.140648177 736.438588478 113.498470257 571.072957654 100.808073154 375 c 1
 475 375 l 1
EndSplineSet
Validated: 1
EndChar

StartChar: seven
Encoding: 55 55 7
Width: 1000
Flags: W
HStem: -100 50<452.423 547.577> 750 50<452.423 547.577>
VStem: 50 400<216.38 483.62> 550 400<216.38 483.62>
LayerCount: 2
Fore
SplineSet
500 800 m 24
 748 800 950 598 950 350 c 24
 950 102 748 -100 500 -100 c 24
 252 -100 50 102 50 350 c 24
 50 598 252 800 500 800 c 24
550 -46.9088164971 m 1
 550 746.811233176 l 1
 533.621010333 748.913834474 516.933799632 750 500 750 c 0
 483.066200368 750 466.378989667 748.913834474 450 746.811233176 c 1
 450 -46.9088164971 l 1
 466.378989667 -48.9490614643 483.066200368 -50 500 -50 c 0
 516.933799632 -50 533.621010333 -48.9490614643 550 -46.9088164971 c 1
EndSplineSet
Validated: 1
EndChar

StartChar: eight
Encoding: 56 56 8
Width: 1000
Flags: W
HStem: -100 21G<376 624> 780 20G<376 624>
VStem: 50 900<216.38 483.62>
LayerCount: 2
Fore
SplineSet
500 800 m 24
 748 800 950 598 950 350 c 24
 950 102 748 -100 500 -100 c 24
 252 -100 50 102 50 350 c 24
 50 598 252 800 500 800 c 24
EndSplineSet
Validated: 1
EndChar

StartChar: nine
Encoding: 57 57 9
Width: 1000
Flags: W
HStem: -100 50<374.988 625.012> 750 50<375.294 624.706>
VStem: 50 50<224.988 474.216> 900 50<224.988 474.216>
LayerCount: 2
Fore
SplineSet
500 800 m 24
 748 800 950 598 950 350 c 24
 950 102 748 -100 500 -100 c 24
 252 -100 50 102 50 350 c 24
 50 598 252 800 500 800 c 24
500 350 m 1049
500 350 m 1049
201.128232818 613.516298432 m 1
 138.213979047 542.274928127 100 449.339752811 100 350 c 0
 100 248.501324259 137.75628326 155.861664702 199.99720118 85.3526699299 c 1
 464.64453125 350 l 1
 201.128232818 613.516298432 l 1
764.64733007 49.9972011799 m 1
 500 314.64453125 l 1
 235.35266993 49.9972011799 l 1
 305.861664702 -12.2437167398 398.501324259 -50 500 -50 c 0
 601.498675741 -50 694.138335298 -12.2437167398 764.64733007 49.9972011799 c 1
236.438496233 648.916972517 m 1
 500 385.35546875 l 1
 763.561503767 648.916972517 l 1
 693.188538703 711.377095198 600.978490978 750 500 750 c 0
 399.021509022 750 306.811461297 711.377095198 236.438496233 648.916972517 c 1
800.00279882 85.3526699299 m 1
 862.24371674 155.861664702 900 248.501324259 900 350 c 0
 900 449.339752811 861.786020953 542.274928127 798.871767182 613.516298432 c 1
 535.35546875 350 l 1
 800.00279882 85.3526699299 l 1
EndSplineSet
Validated: 1
EndChar

StartChar: A
Encoding: 65 65 10
Width: 1000
Flags: W
HStem: 325 50<800 861.642>
VStem: 900 50<165.475 289.024 413.287 536.673>
LayerCount: 2
Back
SplineSet
800 225 m 29
 875 75 l 1053
650 225 m 28
 650 142 717 75 800 75 c 28
 883 75 950 142 950 225 c 28
 950 308 883 375 800 375 c 28
 717 375 650 308 650 225 c 28
700 225 m 28
 700 170 745 125 800 125 c 28
 855 125 900 170 900 225 c 31
 900 280 855 325 800 325 c 28
 745 325 700 280 700 225 c 28
50 325 m 29
 800 325 l 1029
800 475 m 29
 875 625 l 1053
700 475 m 28
 700 530 745 575 800 575 c 28
 855 575 900 530 900 475 c 28
 900 420 855 375 800 375 c 28
 745 375 700 420 700 475 c 28
650 475 m 28
 650 558 717 625 800 625 c 28
 883 625 950 558 950 475 c 28
 950 392 883 325 800 325 c 28
 717 325 650 392 650 475 c 28
50 375 m 29
 800 375 l 1053
EndSplineSet
Fore
SplineSet
883.07545258 350 m 1
 923.45152156 376.846139584 950 422.753102217 950 475 c 0
 950 533.853262423 916.313204332 584.661916926 867.121858835 609.243717669 c 1
 844.694531864 564.389063728 l 1
 877.417289198 547.906198843 900 513.962289511 900 475 c 0
 900 420 855 375 800 375 c 2
 50 375 l 1
 50 325 l 1
 800 325 l 2
 855 325 900 286 900 225 c 0
 900 189.451366419 877.25330371 153.902732838 844.338350687 136.323298626 c 1
 867.121858835 90.7562823309 l 1
 916.313204332 115.338083074 950 166.146737577 950 225 c 0
 950 277.246897783 923.45152156 323.153860416 883.07545258 350 c 1
EndSplineSet
Validated: 9
EndChar

StartChar: C
Encoding: 67 67 11
Width: 1000
Flags: W
HStem: 750 50<750 827.656>
VStem: 900 50<522.822 677.753>
LayerCount: 2
Back
SplineSet
900 800 m 27
 900 579.38268427 721 400 500 400 c 24
 279 400 100 579.38268427 100 800 c 1048
950 800 m 27
 950 552 748 349.999996517 500 350 c 0
 252.106727458 350.000003482 50.3908236085 552.000012749 50 800 c 1035
EndSplineSet
Fore
SplineSet
700 800 m 1
 700 750 l 1
 750 750 l 2
 833 750 900 683 900 600 c 0
 900 547.013635853 872.694705961 500.547938938 831.352814325 473.871605698 c 2
 50 -75 l 1
 50 -125 l 1
 884 -125 l 1
 884 -75 l 1
 128 -75 l 1
 858.307590503 432.081255035 l 2
 913.379731966 467.804069611 950 529.833116135 950 600 c 0
 950 710 860 800 750 800 c 2
 700 800 l 1
EndSplineSet
Validated: 524297
EndChar

StartChar: B
Encoding: 66 66 12
Width: 1000
Flags: W
VStem: 50 50<-43.8761 110.747> 900 50<591.178 743.876>
LayerCount: 2
Back
SplineSet
950 768 m 29
 1061 748 l 29
 973 522 l 29
 850 468 l 29
 750 668 l 29
 950 768 l 29
50 -68 m 25
 250 32 l 25
 150 232 l 25
 0 136 l 25
 50 -68 l 25
600 668 m 28
 600 751 667 818 750 818 c 28
 833 818 900 751 900 668 c 28
 900 585 833 518 750 518 c 28
 667 518 600 585 600 668 c 28
550 668 m 28
 550 778 640 868 750 868 c 28
 860 868 950 778 950 668 c 28
 950 558 860 468 750 468 c 28
 640 468 550 558 550 668 c 28
50 32 m 24
 50 142 140 232 250 232 c 24
 360 232 450 142 450 32 c 24
 450 -78 360 -168 250 -168 c 24
 140 -168 50 -78 50 32 c 24
100 32 m 24
 100 115 167 188 250 188 c 24
 333 188 400 115 400 32 c 24
 400 -51 333 -118 250 -118 c 24
 167 -118 100 -51 100 32 c 24
EndSplineSet
Fore
SplineSet
928.778127455 757.389063728 m 5
 884.243717669 735.121858835 l 5
 894.32931475 714.939281661 900 692.146737577 900 668 c 0
 900 609.146737577 866.313204332 558.338083074 817.121858835 533.756282331 c 2
 160.610936272 210.778127455 l 2
 95.1654216037 177.812397686 50 109.924579021 50 32 c 0
 50 -0.0754209789065 57.6524741147 -30.4502921545 71.2218725447 -57.3890637276 c 1
 115.756282331 -35.1218588346 l 1
 105.67068525 -14.939281661 100 7.85326242326 100 32 c 0
 100 90.1023613054 132.832668614 143.30432431 181.002872899 169.994254203 c 2
 839.384798619 489.008572715 l 2
 904.834578396 521.965729769 950 590.075420979 950 668 c 0
 950 700.075420979 942.347525885 730.450292155 928.778127455 757.389063728 c 5
EndSplineSet
Validated: 524297
EndChar

StartChar: H
Encoding: 72 72 13
Width: 1000
HStem: 325 50
LayerCount: 2
Fore
SplineSet
600 375 m 25
 600 325 l 25
 950 325 l 25
 950 375 l 25
 600 375 l 25
50 375 m 25
 50 325 l 25
 400 325 l 25
 400 375 l 25
 50 375 l 25
EndSplineSet
Validated: 9
EndChar

StartChar: D
Encoding: 68 68 14
Width: 1000
Flags: W
HStem: 350 50<401.914 598.086>
VStem: 50 50<777.517 800> 900 50<777.517 800>
LayerCount: 2
Back
SplineSet
884 -75 m 9
 884 -125 l 25
 50 -125 l 25
 50 -75 l 17
 128 -75 l 1
 884 -75 l 9
326 540 m 5
 458 290 l 5
 890 322 l 5
 879 400 l 5
 750 600 l 5
 326 540 l 5
600 600 m 28
 600 683 667 750 750 750 c 28
 833 750 900 683 900 600 c 28
 900 517 833 450 750 450 c 28
 667 450 600 517 600 600 c 28
550 600 m 28
 550 710 640 800 750 800 c 28
 860 800 950 710 950 600 c 28
 950 490 860 400 750 400 c 28
 640 400 550 490 550 600 c 28
EndSplineSet
Fore
SplineSet
900 800 m 27
 900 579.38268427 721 400 500 400 c 24
 279 400 100 579.38268427 100 800 c 24
 50 800 l 19
 50.3908236085 552.000012749 252.106727458 350.000003482 500 350 c 0
 748 349.999996517 950 552 950 800 c 27
 900 800 l 27
EndSplineSet
Validated: 524297
EndChar

StartChar: E
Encoding: 69 69 15
Width: 1000
HStem: -125 50<128 310 388 950>
LayerCount: 2
Fore
SplineSet
950 -75 m 25
 950 -125 l 25
 50 -125 l 25
 50 -75 l 1
 918 653 l 25
 950 615 l 1
 128 -75 l 25
 310 -75 l 1
 668 226 l 25
 700 188 l 1
 388 -75 l 25
 950 -75 l 25
EndSplineSet
Validated: 1
EndChar

StartChar: F
Encoding: 70 70 16
Width: 1000
Flags: W
HStem: -125 50<128 310 388 900>
VStem: 900 50<-75 355>
LayerCount: 2
Fore
SplineSet
388 -75 m 25
 900 -75 l 25
 900 355 l 25
 388 -75 l 25
950 462 m 9
 950 -125 l 25
 50 -125 l 25
 50 -75 l 1
 918 653 l 25
 950 615 l 1
 128 -75 l 25
 310 -75 l 1
 950 462 l 9
EndSplineSet
Validated: 1
EndChar

StartChar: G
Encoding: 71 71 17
Width: 1000
Flags: W
HStem: 80 50<412.057 587.943> 250 50<263.09 270.044 729.956 736.91> 400 50<263.09 270.043 729.957 736.91> 570 50<411.588 588.412>
LayerCount: 2
Back
SplineSet
300 330 m 28
 300 440 390 530 500 530 c 28
 610 530 700 440 700 330 c 28
 700 220 610 130 500 130 c 28
 390 130 300 220 300 330 c 28
250 330 m 28
 250 192 362 80 500 80 c 28
 638 80 750 192 750 330 c 28
 750 468 638 580 500 580 c 28
 362 580 250 468 250 330 c 28
300 370 m 24
 300 480 390 570 500 570 c 24
 610 570 700 480 700 370 c 24
 700 260 610 170 500 170 c 24
 390 170 300 260 300 370 c 24
250 370 m 24
 250 232 362 120 500 120 c 24
 638 120 750 232 750 370 c 24
 750 508 638 620 500 620 c 24
 362 620 250 508 250 370 c 24
50 300 m 29
 50 250 l 29
 950 250 l 29
 950 300 l 29
 50 300 l 29
50 450 m 25
 50 400 l 25
 950 400 l 25
 950 450 l 25
 50 450 l 25
EndSplineSet
Fore
SplineSet
263.08984375 450 m 1
 50 450 l 1
 50 400 l 1
 251.784183425 400 l 1
 302.261438429 400 l 1
 304.922643927 417.498483859 309.872968861 434.271034471 316.794761395 450 c 1
 347.80859375 520.475585938 418.401605603 570 500 570 c 0
 581.598394397 570 652.19140625 520.475585938 683.205078125 450 c 1
 690.127031139 434.271034471 695.077356073 417.498483859 697.738561571 400 c 1
 748.215820312 400 l 1
 950 400 l 1
 950 450 l 1
 736.91015625 450 l 1
 703.524414062 548.8046875 610.026193455 620 500 620 c 0
 389.973806545 620 296.475585938 548.8046875 263.08984375 450 c 1
697.73828125 300 m 1
 695.077148438 282.501953125 690.127031139 265.728965529 683.205238605 250 c 0
 652.191337606 179.524530341 581.598394397 130 500 130 c 0
 418.401605603 130 347.808662394 179.524530341 316.794761395 250 c 0
 309.872968861 265.728965529 304.922851562 282.501953125 302.26171875 300 c 1
 292.26171875 300 l 1
 251.784179688 300 l 1
 241.784179688 300 l 1
 50 300 l 1
 50 250 l 1
 253.08984375 250 l 1
 263.090185857 250 l 1
 296.475120147 151.195415017 389.973806545 80 500 80 c 0
 610.026193455 80 703.524879853 151.195415017 736.909814143 250 c 1
 746.91015625 250 l 1
 950 250 l 1
 950 300 l 1
 758.215820312 300 l 1
 748.215820312 300 l 1
 707.73828125 300 l 1
 697.73828125 300 l 1
EndSplineSet
Validated: 524297
EndChar

StartChar: I
Encoding: 73 73 18
Width: 1000
Flags: W
HStem: 300 50<371.633 628.367> 525 50<406.457 593.543>
VStem: 50 50<-100 31.1354> 225 50<290.073 392.482> 725 50<290.073 392.482> 900 50<-100 31.1354>
LayerCount: 2
Back
SplineSet
275 300 m 28
 275 424 376 525 500 525 c 28
 624 525 725 424 725 300 c 28
 725 176 624 75 500 75 c 28
 376 75 275 176 275 300 c 28
225 300 m 28
 225 452 348 575 500 575 c 28
 652 575 775 452 775 300 c 28
 775 148 652 25 500 25 c 28
 348 25 225 148 225 300 c 28
950 -100 m 1052
100 -100 m 24
 100 121 279 300 500 300 c 24
 721 300 900 121 900 -100 c 24
 900 -321 721 -500 500 -500 c 24
 279 -500 100 -321 100 -100 c 24
50 -100 m 24
 50 148 252 350 500 350 c 24
 748 350 950 148 950 -100 c 24
 950 -348 748 -550 500 -550 c 24
 252 -550 50 -348 50 -100 c 24
EndSplineSet
Fore
SplineSet
771.865169944 258.294999446 m 0
 773.929620254 271.893427561 775 285.820530802 775 300 c 24
 775 452 652 575 500 575 c 24
 348 575 225 452 225 300 c 24
 225 285.820530754 226.070379753 271.893427466 228.134830039 258.294999355 c 0
 119.981918702 176.007093485 50 45.9717850103 50 -100 c 24
 100 -100 l 24
 100 22.4973007525 154.994786671 132.090796811 241.653899931 205.450028094 c 0
 255.055945171 216.795213839 269.215318272 227.273770756 284.045722606 236.79940222 c 0
 346.326572206 276.80265548 420.44180993 300 500 300 c 24
 579.55819007 300 653.673828125 276.802734375 715.954101562 236.799804688 c 0
 730.78515625 227.2734375 744.944054829 216.795213839 758.346100069 205.450028094 c 0
 845.005213329 132.090796811 900 22.4973007525 900 -100 c 24
 950 -100 l 24
 950 45.9717850346 880.018081275 176.007093528 771.865169944 258.294999446 c 0
724.766083572 289.682055368 m 4
 658.578133907 328.028665733 581.790753436 349.99999977 500 350 c 24
 418.20924653 350 341.421866145 328.028666016 275.233916534 289.682055736 c 0
 275.078535938 293.10235855 275 296.542237064 275 300 c 24
 275 424 376 525 500 525 c 24
 624 525 725 424 725 300 c 24
 725 296.542236863 724.921464053 293.102358149 724.766083572 289.682055368 c 4
EndSplineSet
Validated: 524293
EndChar

StartChar: J
Encoding: 74 74 19
Width: 1000
Flags: W
HStem: -100 21G<50 100 900 950> -100 21G<50 100 900 950> 300 50<371.633 628.367> 560 50<146.034 853.966>
VStem: 50 50<-100 31.1354> 900 50<-100 31.1354>
LayerCount: 2
Fore
SplineSet
146.034469354 560 m 1x3c
 275.234375 289.681640625 l 0
 341.421875 328.028320312 418.20924653 350 500 350 c 24
 581.790753436 349.99999977 658.578133907 328.028665733 724.766083572 289.682055368 c 0
 853.965530646 560 l 1
 146.034469354 560 l 1x3c
771.865169944 258.294999446 m 0
 880.018081275 176.007093528 950 45.9717850346 950 -100 c 24
 900 -100 l 24
 900 22.4973007525 845.005213329 132.090796811 758.346100069 205.450028094 c 0
 744.944054829 216.795213839 730.78515625 227.2734375 715.954101562 236.799804688 c 0
 653.673828125 276.802734375 579.55819007 300 500 300 c 24
 420.44180993 300 346.326572206 276.80265548 284.045722606 236.79940222 c 0
 269.215318272 227.273770756 255.055945171 216.795213839 241.653899931 205.450028094 c 0
 154.994786671 132.090796811 100 22.4973007525 100 -100 c 24
 50 -100 l 24xbc
 50 45.9717850103 119.981918702 176.007093485 228.134830039 258.294999355 c 0
 60 610 l 25
 940 610 l 25
 771.865169944 258.294999446 l 0
EndSplineSet
Validated: 524289
EndChar
